<svg id="Layer_1" data-name="Layer 1" xmlns="http://www.w3.org/2000/svg" viewBox="0 0 100 100"><defs><style>.cls-1{fill:none;stroke:#fff;stroke-linecap:round;stroke-linejoin:round;stroke-width:10px;}.cls-2{fill:#fff;stroke:#00b4ff;stroke-miterlimit:10;stroke-width:2px;}</style></defs><line class="cls-1" x1="17.66" y1="81.62" x2="17.66" y2="62.59"/><line class="cls-1" x1="30.12" y1="81.67" x2="29.93" y2="58.24"/><line class="cls-1" x1="42.46" y1="81.57" x2="42.21" y2="52.18"/><line class="cls-1" x1="54.67" y1="81.62" x2="54.67" y2="47.45"/><line class="cls-1" x1="67.01" y1="81.62" x2="67.01" y2="36.77"/><line class="cls-1" x1="79.35" y1="81.62" x2="79.35" y2="28.19"/><path class="cls-2" d="M87.83,18.33c-10.89,5-25.8,10-37.31,10.89L61.58,34c-20.29,14-44.22,21.62-44.64,21.75a6.61,6.61,0,0,0-4.44,8.36A6.84,6.84,0,0,0,19,68.78a7.22,7.22,0,0,0,2.09-.32c1.2-.37,28.15-8.86,50.77-25.24l5.81,11.55C78.33,43.61,83,29,87.83,18.33Z"/></svg>