<svg id="Layer_1" data-name="Layer 1" xmlns="http://www.w3.org/2000/svg" viewBox="0 0 100 100"><defs><style>.cls-1{fill:none;stroke:#fff;stroke-linecap:round;stroke-linejoin:round;stroke-width:13px;}.cls-2{fill:#fff;stroke:#00b4ff;stroke-miterlimit:10;stroke-width:2px;}</style></defs><line class="cls-1" x1="12.13" y1="84.9" x2="12.13" y2="62.02"/><line class="cls-1" x1="30.07" y1="84.96" x2="29.79" y2="56.81"/><line class="cls-1" x1="47.83" y1="84.83" x2="47.48" y2="49.52"/><line class="cls-1" x1="65.42" y1="84.9" x2="65.42" y2="43.84"/><line class="cls-1" x1="83.18" y1="84.9" x2="83.18" y2="31"/><path class="cls-2" d="M96.47,8.84c-13.09,6.05-31,12-44.85,13.08l13.3,5.8c-24.38,16.87-53.15,26-53.65,26.14a7.94,7.94,0,0,0-5.34,10,8.24,8.24,0,0,0,7.86,5.55,8.52,8.52,0,0,0,2.52-.38c1.44-.45,33.82-10.64,61-30.33l7,13.88C85,39.22,90.62,21.69,96.47,8.84Z"/></svg>