<?xml version="1.0" encoding="utf-8"?>
<svg fill-rule="evenodd" version="1.2" viewBox="0 0 256 256" xmlns:cc="http://creativecommons.org/ns#" xmlns:dc="http://purl.org/dc/elements/1.1/" xmlns:rdf="http://www.w3.org/1999/02/22-rdf-syntax-ns#" baseProfile="tiny-ps" xmlns="http://www.w3.org/2000/svg">
  <title>Think Tutor</title>
  <path d="M0 0h256v256H0z" />
  <path d="m61.6 84h-13.3v38.1h-10.5v-38h-13.2v-8.6h37v8.6zm46.7 38.1h-10.6v-19h-19.3v19h-10.4v-46.6h10.5v18.6h19.3v-18.6h10.6v46.6zm10.6-46.6h10.5v46.6h-10.5zm63.1 46.6h-10.6l-19.2-29.3-2.4-3.8 0.2 7.5v25.6h-10v-46.6h11.4l18.5 28.4s1.5755 2.5083 2.3 3.8h0.1l-0.2-6.4v-25.8h9.9zm49.4 0h-13.2l-13.6-20.1-1.3-2.6h-0.1v22.8h-10.5v-46.7h10.5v22h0.1l1.3-2.5 13-19.5h12.4l-16.2 22.3z" fill="#fff" />
  <path d="m56.2 141.6h-13.2v38h-10.6v-38h-13.4v-8.5h37.1v8.5zm44.3 17.9c0 14-6.5 21-19.6 21-12.6 0-19-6.9-19-20.5v-27h10.6v27.1c0 7.5 3 11.3 8.8 11.3s8.7-3.6 8.7-11v-27.3h10.5zm42.9-17.9h-13.3v38h-10.5v-38h-13.3v-8.5h37.1zm23.6 38.9c-6.7 0-12.2-2.2-16.4-6.5-4.2-4.4-6.3-10-6.3-17a25 25 0 0 1 6.4-17.9c4.3-4.5 10-6.8 17-6.8 6.6 0 12 2.2 16.1 6.5a24 24 0 0 1 6.2 17.2c0 7.4-2.1 13.3-6.4 17.7a22 22 0 0 1-16.7 6.8zm0.4-39.2c-3.7 0-6.6 1.4-8.8 4.2a17.3 17.3 0 0 0-3.2 11c0 4.5 1 8.2 3.2 10.9s5 4 8.5 4c3.6 0 6.5-1.3 8.6-4 2.2-2.5 3.2-6.1 3.2-10.8 0-4.8-1-8.6-3-11.3a10 10 0 0 0-8.5-4zm69.5 38.4h-12.1l-7.3-12a40 40 0 0 0-3-4.3 6 6 0 0 0-1.6-1.2 4 4 0 0 0-1.8-0.4h-2.9v17.9h-10.5v-46.7h16.7c11.3 0 17 4.2 17 12.6a13.1 13.1 0 0 1-2.9 8.3c-1 1-2 2-3.3 2.8a17 17 0 0 1-4.3 1.9v0.1c0.7 0.2 1.4 0.6 2 1l1.9 1.8a24 24 0 0 1 3.2 4.3l8.9 13.8zm-28.7-38.8v13h4.6c2.2 0 4-0.7 5.4-2s2.1-3 2.1-4.9c0-4-2.4-6-7.3-6h-4.8z" fill="#00b4ff" />
</svg>